<?xml version="1.0" encoding="utf-8"?>
<!-- Generator: Adobe Illustrator 19.2.1, SVG Export Plug-In . SVG Version: 6.00 Build 0)  -->
<svg version="1.1" id="Слой_1" xmlns="http://www.w3.org/2000/svg" xmlns:xlink="http://www.w3.org/1999/xlink" x="0px" y="0px"
	 viewBox="0 0 674.4 222.5" style="enable-background:new 0 0 674.4 222.5;" xml:space="preserve">
<style type="text/css">
	.st0{fill:#C20925;}
</style>
<path d="M107.5,219.5H61.7V94.1l0.4-20.6L62.8,51C55.2,58.6,50,63.5,47,65.9l-24.9,20L0,58.4L69.8,2.8h37.7V219.5z"/>
<path d="M318.1,95.3c0,42.7-9,74.6-27,95.6c-18,21.1-45.2,31.6-81.7,31.6c-12.8,0-22.6-0.7-29.2-2.1v-36.8c8.3,2.1,17,3.1,26.1,3.1
	c15.3,0,27.9-2.2,37.8-6.7c9.9-4.5,17.4-11.6,22.7-21.2c5.2-9.6,8.3-22.9,9-39.8H274c-5.7,9.3-12.4,15.8-19.9,19.6
	s-16.9,5.6-28.2,5.6c-18.9,0-33.8-6.1-44.6-18.2C170.4,113.9,165,97.1,165,75.5c0-23.2,6.6-41.6,19.8-55.1S216,0.2,238.7,0.2
	c16,0,30,3.8,42,11.3s21.2,18.4,27.6,32.7C314.9,58.5,318.1,75.5,318.1,95.3z M239.7,37c-9.5,0-16.9,3.3-22.2,9.8s-8,15.9-8,28.2
	c0,10.5,2.4,18.8,7.3,24.9c4.8,6.1,12.2,9.2,22.1,9.2c9.3,0,17.2-3,23.9-9.1c6.6-6.1,9.9-13.1,9.9-21c0-11.8-3.1-21.7-9.3-29.8
	C257.2,41.1,249.3,37,239.7,37z"/>
<g>
	<path class="st0" d="M500.1,95.1c0,42.7-9,74.6-27,95.6c-18,21.1-45.2,31.6-81.7,31.6c-12.8,0-22.6-0.7-29.2-2.1v-36.8
		c8.3,2.1,17,3.1,26.1,3.1c15.3,0,27.9-2.2,37.8-6.7s17.4-11.6,22.7-21.2c5.2-9.6,8.3-22.9,9-39.8H456c-5.7,9.3-12.4,15.8-19.9,19.6
		c-7.5,3.8-16.9,5.6-28.2,5.6c-18.9,0-33.8-6.1-44.6-18.2C352.4,113.7,347,96.9,347,75.3c0-23.2,6.6-41.6,19.8-55.1
		C380,6.7,398,0,420.7,0c16,0,30,3.8,42,11.3s21.2,18.4,27.6,32.7C496.9,58.3,500.1,75.3,500.1,95.1z M421.7,36.8
		c-9.5,0-16.9,3.3-22.2,9.8s-8,15.9-8,28.2c0,10.5,2.4,18.8,7.3,24.9c4.8,6.1,12.2,9.2,22.1,9.2c9.3,0,17.2-3,23.9-9.1
		c6.6-6.1,9.9-13.1,9.9-21c0-11.8-3.1-21.7-9.3-29.8C439.2,40.8,431.3,36.8,421.7,36.8z"/>
	<path class="st0" d="M521.3,127.2c0-42.9,9.1-74.8,27.2-95.8C566.6,10.4,593.8,0,630,0c12.4,0,22,0.7,29.1,2.2v36.6
		c-8.8-2-17.5-3-26.1-3c-15.7,0-28.5,2.4-38.5,7.1c-9.9,4.7-17.4,11.8-22.3,21.1c-4.9,9.3-7.9,22.5-8.7,39.6h1.9
		c9.8-16.8,25.4-25.2,47-25.2c19.4,0,34.5,6.1,45.5,18.2c11,12.2,16.5,29,16.5,50.4c0,23.1-6.5,41.4-19.6,54.9
		c-13,13.5-31.1,20.2-54.3,20.2c-16,0-30-3.7-41.9-11.1c-11.9-7.4-21.1-18.2-27.6-32.5C524.5,164.4,521.3,147.3,521.3,127.2z
		 M599.6,185.6c9.8,0,17.3-3.3,22.5-9.9s7.9-15.9,7.9-28.1c0-10.6-2.4-18.9-7.3-25c-4.9-6.1-12.3-9.1-22.2-9.1c-9.3,0-17.2,3-23.8,9
		s-9.9,13-9.9,21.1c0,11.8,3.1,21.7,9.3,29.8C582.3,181.6,590.1,185.6,599.6,185.6z"/>
</g>
</svg>
