<?xml version="1.0" encoding="utf-8"?>
<!-- Generator: Adobe Illustrator 19.2.1, SVG Export Plug-In . SVG Version: 6.00 Build 0)  -->
<svg version="1.1" id="Слой_1" xmlns="http://www.w3.org/2000/svg" xmlns:xlink="http://www.w3.org/1999/xlink" x="0px" y="0px" viewBox="0 0 500 500" style="enable-background:new 0 0 500 500;" xml:space="preserve" height="500" width="500">
<style type="text/css">
	.C20925{fill:#C20925;}
</style>
<g>
	<path d="M107.5,226H61.7V100.6L62.1,80l0.7-22.5C55.2,65.1,50,70,47,72.4l-24.9,20L0,64.9L69.8,9.3h37.7V226z"/>
	<path d="M318.1,101.8c0,42.7-9,74.6-27,95.6c-18,21.1-45.2,31.6-81.7,31.6c-12.8,0-22.6-0.7-29.2-2.1v-36.8
		c8.3,2.1,17,3.1,26.1,3.1c15.3,0,27.9-2.2,37.8-6.7c9.9-4.5,17.4-11.6,22.7-21.2c5.2-9.6,8.3-22.9,9-39.8h-1.8
		c-5.7,9.3-12.4,15.8-19.9,19.6c-7.5,3.8-16.9,5.6-28.2,5.6c-18.9,0-33.8-6.1-44.6-18.2c-10.9-12.1-16.3-28.9-16.3-50.5
		c0-23.2,6.6-41.6,19.8-55.1c13.2-13.5,31.2-20.2,53.9-20.2c16,0,30,3.8,42,11.3c12,7.5,21.2,18.4,27.6,32.7
		C314.9,65,318.1,82,318.1,101.8z M239.7,43.5c-9.5,0-16.9,3.3-22.2,9.8s-8,15.9-8,28.2c0,10.5,2.4,18.8,7.3,24.9
		c4.8,6.1,12.2,9.2,22.1,9.2c9.3,0,17.2-3,23.9-9.1c6.6-6.1,9.9-13.1,9.9-21c0-11.8-3.1-21.7-9.3-29.8
		C257.2,47.6,249.3,43.5,239.7,43.5z"/>
	<path class="C20925" d="M325.8,366.1c0,42.7-9,74.6-27,95.6c-18,21.1-45.2,31.6-81.7,31.6c-12.8,0-22.6-0.7-29.2-2.1v-36.8
		c8.3,2.1,17,3.1,26.1,3.1c15.3,0,27.9-2.2,37.8-6.7c9.9-4.5,17.4-11.6,22.7-21.2c5.2-9.6,8.3-22.9,9-39.8h-1.8
		c-5.7,9.3-12.4,15.8-19.9,19.6c-7.5,3.8-16.9,5.6-28.2,5.6c-18.9,0-33.8-6.1-44.6-18.2c-10.9-12.1-16.3-28.9-16.3-50.5
		c0-23.2,6.6-41.6,19.8-55.1c13.2-13.5,31.2-20.2,53.9-20.2c16,0,30,3.8,42,11.3c12,7.5,21.2,18.4,27.6,32.7
		C322.6,329.3,325.8,346.3,325.8,366.1z M247.4,307.8c-9.5,0-16.9,3.3-22.2,9.8c-5.3,6.5-8,15.9-8,28.2c0,10.5,2.4,18.8,7.3,24.9
		c4.8,6.1,12.2,9.2,22.1,9.2c9.3,0,17.2-3,23.9-9.1c6.6-6.1,9.9-13.1,9.9-21c0-11.8-3.1-21.7-9.3-29.8
		C264.9,311.8,257,307.8,247.4,307.8z"/>
	<path class="C20925" d="M347,398.2c0-42.9,9.1-74.8,27.2-95.8c18.1-21,45.3-31.4,81.5-31.4c12.4,0,22,0.7,29.1,2.2v36.6
		c-8.8-2-17.5-3-26.1-3c-15.7,0-28.5,2.4-38.5,7.1c-9.9,4.7-17.4,11.8-22.3,21.1c-4.9,9.3-7.9,22.5-8.7,39.6h1.9
		c9.8-16.8,25.4-25.2,47-25.2c19.4,0,34.5,6.1,45.5,18.2c11,12.2,16.5,29,16.5,50.4c0,23.1-6.5,41.4-19.6,54.9
		c-13,13.5-31.1,20.2-54.3,20.2c-16,0-30-3.7-41.9-11.1c-11.9-7.4-21.1-18.2-27.6-32.5C350.2,435.4,347,418.3,347,398.2z
		 M425.3,456.6c9.8,0,17.3-3.3,22.5-9.9c5.2-6.6,7.9-15.9,7.9-28.1c0-10.6-2.4-18.9-7.3-25c-4.9-6.1-12.3-9.1-22.2-9.1
		c-9.3,0-17.2,3-23.8,9c-6.6,6-9.9,13-9.9,21.1c0,11.8,3.1,21.7,9.3,29.8C408,452.6,415.8,456.6,425.3,456.6z"/>
</g>
<rect x="32.3" y="355" width="47.3" height="47.3"/>
<rect x="392.5" y="97" class="C20925" width="106.2" height="42.7"/>
</svg>
