<?xml version="1.0" encoding="utf-8"?>
<!-- Generator: Adobe Illustrator 19.2.1, SVG Export Plug-In . SVG Version: 6.00 Build 0)  -->
<svg version="1.1" id="Слой_1" xmlns="http://www.w3.org/2000/svg" xmlns:xlink="http://www.w3.org/1999/xlink" x="0px" y="0px"
	 viewBox="0 0 500 500" style="enable-background:new 0 0 500 500;" xml:space="preserve">
<style type="text/css">
	.st0{fill:#C20925;}
</style>
<g>
	<path class="st0" d="M207.7,99.2h-92.6v92.6h92.6V99.2z M198,182.1h-73.3v-73.3H198V182.1z"/>
	<polygon class="st0" points="184.4,127.3 174.7,127.3 174.7,158.8 148,158.8 148,127.3 138.4,127.3 138.4,168.4 184.4,168.4 	"/>
</g>
<g>
	<path d="M336.7,70.1H86v340.8h29v29h250.6V99.2h-29.1V70.1z M95.7,79.7H327v321.5H95.7V79.7z M356.1,108.8v321.5H124.7v-19.4h211.9
		V108.8H356.1z"/>
	<rect x="115.1" y="211.4" width="191.5" height="9.6"/>
	<rect x="115.1" y="241.8" width="191.5" height="9.6"/>
	<rect x="115.1" y="272.3" width="191.5" height="9.6"/>
	<rect x="229" y="99.2" width="77.6" height="9.6"/>
	<rect x="229" y="129.6" width="77.6" height="9.6"/>
	<rect x="115.1" y="302.7" width="191.5" height="9.6"/>
	<rect x="240.4" y="370.7" width="66.2" height="9.6"/>
	<polygon points="240.8,341.1 240.8,362.6 306.3,362.6 306.3,341.1 296.6,341.1 296.6,353 250.4,353 250.4,341.1 	"/>
	<path d="M407.4,227.8h-2.7c-7.6,0-13.8,6.2-13.8,13.8v6.9v9.6v115.3v9.6v22.1c0,6.4,4.4,11.8,10.4,13.4v16.6h9.6v-16.6
		c5.9-1.6,10.4-6.9,10.4-13.4v-22.1v-9.6V258.1v-9.6v-6.9C421.3,234,415.1,227.8,407.4,227.8z M411.6,405.2c0,2.3-1.9,4.2-4.2,4.2
		h-2.7c-2.3,0-4.2-1.9-4.2-4.2v-22.1h11.1V405.2z M411.6,373.5h-11.1V258.1h11.1V373.5z M400.5,248.5v-6.9c0-2.3,1.9-4.2,4.2-4.2
		h2.7c2.3,0,4.2,1.9,4.2,4.2v6.9H400.5z"/>
</g>
</svg>
