<?xml version="1.0" encoding="utf-8"?>
<!-- Generator: Adobe Illustrator 19.2.1, SVG Export Plug-In . SVG Version: 6.00 Build 0)  -->
<svg version="1.1" id="Слой_1" xmlns="http://www.w3.org/2000/svg" xmlns:xlink="http://www.w3.org/1999/xlink" x="0px" y="0px"
	 viewBox="0 0 500 500" style="enable-background:new 0 0 500 500;" xml:space="preserve">
<style type="text/css">
	.st0{fill:#C20925;}
</style>
<path class="st0" d="M383.6,90.5V70.1h-56.4V75v45.7v44.8h9.9v-44.8h36.6v20.4h56.4V90.5H383.6z M337.1,110.8V80h36.6v10.5v20.4
	H337.1z M420.2,131.2h-36.6v-10.5v-20.4h36.6V131.2z"/>
<path d="M465.8,300.7l-130-138.5c-0.9-1-2.1-1.5-3.5-1.6c-1.4,0-2.6,0.4-3.5,1.3L206.4,277.7L165.2,235c-1.9-1.9-4.9-2-6.9-0.2
	L42.2,341.3l6.7,7.3l45.6-41.8l20.3,20.3c1.9,1.9,5.1,1.9,7,0l15.6-15.6l15.6,15.6c1.9,1.9,5.1,1.9,7,0l15.6-15.6l15.6,15.6
	c1,1,2.2,1.4,3.5,1.4s2.5-0.5,3.5-1.4l21.4-21.4l77.5,80.2v55.9h9.9v-18h41.5v18h9.9V253h-9.9v18h-41.5v-18h-9.9v118.6l-83.9-86.8
	l60.6-57.3l18.5,18.5c1,1,2.2,1.4,3.5,1.4s2.5-0.5,3.5-1.4l14.1-14.1l14.1,14.1c0.9,0.9,2.2,1.4,3.5,1.4s2.6-0.5,3.5-1.4l14.1-14.1
	l14.1,14.1c1.9,1.9,5.1,1.9,7,0l16-16l72.7,77.5L465.8,300.7z M348.7,352.3v25.8h-41.5v-25.8H348.7z M307.1,342.4v-25.8h41.5v25.8
	H307.1z M307.1,413.8V388h41.5v25.8H307.1z M348.7,280.9v25.8h-41.5v-25.8H348.7z M194.8,316.5l-15.6-15.6c-1.9-1.9-5.1-1.9-7,0
	l-15.6,15.6l-15.6-15.6c-1.9-1.9-5.1-1.9-7,0l-15.6,15.6L101.8,300l59.6-54.7l51.4,53.2L194.8,316.5z M366.4,235.4l-14.1-14.1
	c-1.9-1.9-5.1-1.9-7,0l-14.1,14.1L317,221.3c-0.9-0.9-2.2-1.4-3.5-1.4s-2.6,0.5-3.5,1.4l-14.1,14.1l-14.8-14.8l50.9-48.1l47.1,50.2
	L366.4,235.4z"/>
</svg>
