<?xml version="1.0" encoding="utf-8"?>
<!-- Generator: Adobe Illustrator 19.2.1, SVG Export Plug-In . SVG Version: 6.00 Build 0)  -->
<svg version="1.1" id="Слой_1" xmlns="http://www.w3.org/2000/svg" xmlns:xlink="http://www.w3.org/1999/xlink" x="0px" y="0px"
	 viewBox="0 0 500 500" style="enable-background:new 0 0 500 500;" xml:space="preserve">
<style type="text/css">
	.st0{fill:#C20925;}
</style>
<g>
	<path class="st0" d="M432.8,179.5l-35.4-9.4l9.4-35.4c0.7-2.6-0.8-5.2-3.4-5.9c-2.6-0.7-5.2,0.8-5.9,3.4l-10.1,38l-130.2,71.5l5-22
		c0.6-2.6-1-5.2-3.6-5.7c-2.6-0.6-5.2,1-5.7,3.6l-8.2,36.4l37.3,10.9c0.4,0.1,0.9,0.2,1.3,0.2c2.1,0,4-1.4,4.6-3.5
		c0.7-2.5-0.7-5.2-3.3-6l-21.5-6.3l129.1-70.9l38.2,10.2c0.4,0.1,0.8,0.2,1.2,0.2c2.1,0,4.1-1.4,4.6-3.6
		C436.9,182.8,435.4,180.1,432.8,179.5z"/>
	<path class="st0" d="M464.6,161.4l-35.4-9.4l9.4-35.4c0.7-2.6-0.8-5.2-3.4-5.9c-2.6-0.7-5.2,0.8-5.9,3.4l-11.9,44.7l44.7,11.9
		c0.4,0.1,0.8,0.2,1.2,0.2c2.1,0,4.1-1.4,4.6-3.6C468.7,164.7,467.2,162.1,464.6,161.4z"/>
	<path class="st0" d="M496.4,143.3l-35.4-9.4l9.4-35.4c0.7-2.6-0.8-5.2-3.4-5.9c-2.6-0.7-5.2,0.8-5.9,3.4l-11.9,44.7l44.7,11.9
		c0.4,0.1,0.8,0.2,1.2,0.2c2.1,0,4.1-1.4,4.6-3.6C500.5,146.6,499,144,496.4,143.3z"/>
</g>
<g>
	<path d="M416.4,250.4c0-12-1.3-24.1-3.9-35.8c-0.6-2.6-3.1-4.2-5.7-3.7c-2.6,0.6-4.2,3.1-3.7,5.7c2.4,11,3.7,22.3,3.7,33.7
		c0,85.6-69.7,155.3-155.3,155.3c-85.6,0-155.3-69.7-155.3-155.3c0-85.6,69.7-155.3,155.3-155.3c41.5,0,80.5,16.2,109.8,45.5
		c1.9,1.9,4.9,1.9,6.8,0c1.9-1.9,1.9-4.9,0-6.8c-31.1-31.1-72.6-48.3-116.6-48.3c-90.9,0-164.9,74-164.9,164.9
		c0,57,29.1,107.4,73.2,137L133,430.2c-1.4,2.2-0.7,5.2,1.5,6.6c0.8,0.5,1.7,0.7,2.6,0.7c1.6,0,3.2-0.8,4.1-2.3l26.9-42.8
		c24.5,14.5,53.1,22.8,83.5,22.8c30.5,0,59-8.3,83.5-22.8l26.9,42.8c0.9,1.5,2.5,2.3,4.1,2.3c0.9,0,1.8-0.2,2.6-0.7
		c2.3-1.4,2.9-4.4,1.5-6.6l-26.9-42.8C387.3,357.8,416.4,307.4,416.4,250.4z"/>
	<path d="M256.3,123.3c0-2.7-2.2-4.8-4.8-4.8c-72.7,0-131.9,59.2-131.9,131.9c0,2.7,2.2,4.8,4.8,4.8c2.7,0,4.8-2.2,4.8-4.8
		c0-67.4,54.9-122.3,122.3-122.3C254.1,128.1,256.3,126,256.3,123.3z"/>
	<path d="M251.5,163.6c22.6,0,44.1,8.7,60.3,24.4c1.9,1.8,5,1.8,6.8-0.1c1.8-1.9,1.8-5-0.1-6.8c-18.1-17.5-41.9-27.1-67-27.1
		c-53.2,0-96.4,43.3-96.4,96.4s43.3,96.4,96.4,96.4s96.4-43.3,96.4-96.4c0-6.7-0.7-13.5-2.1-20c-0.6-2.6-3.1-4.3-5.7-3.7
		c-2.6,0.5-4.3,3.1-3.7,5.7c1.2,5.9,1.9,12,1.9,18c0,47.9-38.9,86.8-86.8,86.8c-47.9,0-86.8-38.9-86.8-86.8
		C164.7,202.5,203.6,163.6,251.5,163.6z"/>
</g>
</svg>
