<?xml version="1.0" encoding="utf-8"?>
<!-- Generator: Adobe Illustrator 19.2.1, SVG Export Plug-In . SVG Version: 6.00 Build 0)  -->
<svg version="1.1" id="Layer_1" xmlns="http://www.w3.org/2000/svg" xmlns:xlink="http://www.w3.org/1999/xlink" x="0px" y="0px"
	 viewBox="0 0 388 388" style="enable-background:new 0 0 388 388;" xml:space="preserve">
<style type="text/css">
	.st0{fill:#FFFFFF;}
	.st1{fill:none;}
	.st2{fill:#FFFFFF;}
</style>
<g>
	<path class="st2" d="M163.4,267.8c6.6-1.7,12.5-4.4,17.6-8s9.2-8.3,12.3-14c3-5.7,4.5-12.5,4.5-20.3c0-9.7-2.3-18-7-24.9
		s-11.7-11.7-21.3-14.4c7-3.3,12.3-7.6,15.8-12.8s5.3-11.7,5.3-19.5c0-7.2-1.2-13.3-3.5-18.2c-2.4-4.9-5.8-8.9-10.1-11.8
		c-4.4-2.9-9.6-5.1-15.7-6.4c-6.1-1.3-12.8-2-20.2-2H68v155h75.1C150.1,270.5,156.9,269.6,163.4,267.8L163.4,267.8z M102.1,141.8
		H134c3,0,6,0.2,8.8,0.8c2.9,0.5,5.3,1.4,7.5,2.7s3.9,3.1,5.3,5.4c1.3,2.3,1.9,5.3,1.9,8.9c0,6.5-1.9,11.2-5.8,14.1
		c-4,2.9-9,4.3-15,4.3h-34.5L102.1,141.8L102.1,141.8z M102.1,244.1v-42.7h37.1c7.3,0,13.3,1.7,17.8,5.1c4.5,3.4,6.7,9.1,6.7,17.1
		c0,4.1-0.7,7.4-2,10c-1.4,2.6-3.3,4.7-5.5,6.2c-2.3,1.6-5,2.6-8,3.3s-6.2,1-9.6,1L102.1,244.1L102.1,244.1z"/>
	<path class="st2" d="M223.3,257c5,5.2,11,9.2,18.1,12.1c7.1,2.8,15.1,4.3,23.9,4.3c12.7,0,23.6-2.9,32.5-8.7c9-5.8,15.7-15.4,20-29
		h-27.1c-1.1,3.5-3.8,6.8-8.2,9.9c-4.5,3.1-9.9,4.7-16.1,4.7c-8.6,0-15.3-2.3-19.9-6.8c-4.6-4.5-7.6-12.9-7.6-21.8h81
		c0.6-8.7-0.1-17-2.1-25s-5.3-15.1-9.9-21.3s-10.4-11.2-17.5-14.9s-15.4-5.5-24.9-5.5c-8.6,0-16.4,1.5-23.4,4.6s-13.1,7.2-18.2,12.5
		c-5.1,5.3-9,11.5-11.8,18.8c-2.7,7.2-4.1,15.1-4.1,23.5c0,8.7,1.4,16.7,4,23.9C214.6,245.6,218.4,251.8,223.3,257L223.3,257z
		 M240.2,194.9c0.8-2.8,2.1-5.4,4.1-7.9c2-2.4,4.6-4.5,7.8-6.2c3.3-1.7,7.3-2.5,12.3-2.5c7.6,0,13.8,2.2,17.4,6.3
		c3.7,4.1,6.4,9.9,7.1,17.8h-50.2C239,200.1,239.4,197.7,240.2,194.9L240.2,194.9z"/>
	<rect x="232.5" y="125.8" class="st2" width="62.8" height="15.3"/>
</g>
<path class="st0" d="M0,0.4v388h388V0.4H0z M364,364.4H24v-340h340V364.4z"/>
<g>
	<path class="st1" d="M158,206.1c-4.5-3.4-10.5-5.1-17.8-5.1h-37.1v42.7h36.5c3.4,0,6.6-0.3,9.6-1s5.7-1.7,8-3.3
		c2.2-1.5,4.1-3.6,5.5-6.2c1.3-2.6,2-5.9,2-10C164.7,215.2,162.5,209.5,158,206.1z"/>
	<path class="st1" d="M265.4,177.9c-5,0-9,0.8-12.3,2.5c-3.2,1.7-5.8,3.8-7.8,6.2c-2,2.5-3.3,5.1-4.1,7.9s-1.2,5.2-1.5,7.5h50.2
		c-0.7-7.9-3.4-13.7-7.1-17.8C279.2,180.1,273,177.9,265.4,177.9z"/>
	<path class="st1" d="M152.7,173.3c3.9-2.9,5.8-7.6,5.8-14.1c0-3.6-0.6-6.6-1.9-8.9c-1.4-2.3-3.1-4.1-5.3-5.4
		c-2.2-1.3-4.6-2.2-7.5-2.7c-2.8-0.6-5.8-0.8-8.8-0.8h-31.8v36.2h34.5C143.7,177.6,148.7,176.2,152.7,173.3z"/>
	<path class="st1" d="M0,0.4v388h388V0.4H0z M233.5,125.4h62.8v15.3h-62.8V125.4z M194.3,245.4c-3.1,5.7-7.2,10.4-12.3,14
		c-5.1,3.6-11,6.3-17.6,8c-6.5,1.8-13.3,2.7-20.3,2.7H69v-155h73.1c7.4,0,14.1,0.7,20.2,2c6.1,1.3,11.3,3.5,15.7,6.4
		c4.3,2.9,7.7,6.9,10.1,11.8c2.3,4.9,3.5,11,3.5,18.2c0,7.8-1.8,14.3-5.3,19.5s-8.8,9.5-15.8,12.8c9.6,2.7,16.6,7.5,21.3,14.4
		c4.7,6.9,7,15.2,7,24.9C198.8,232.9,197.3,239.7,194.3,245.4z M320.9,221.3h-81c0,8.9,3,17.3,7.6,21.8s11.3,6.8,19.9,6.8
		c6.2,0,11.6-1.6,16.1-4.7c4.4-3.1,7.1-6.4,8.2-9.9h27.1c-4.3,13.6-11,23.2-20,29c-8.9,5.8-19.8,8.7-32.5,8.7
		c-8.8,0-16.8-1.5-23.9-4.3c-7.1-2.9-13.1-6.9-18.1-12.1c-4.9-5.2-8.7-11.4-11.3-18.7c-2.6-7.2-4-15.2-4-23.9
		c0-8.4,1.4-16.3,4.1-23.5c2.8-7.3,6.7-13.5,11.8-18.8c5.1-5.3,11.2-9.4,18.2-12.5c7-3.1,14.8-4.6,23.4-4.6c9.5,0,17.8,1.8,24.9,5.5
		c7.1,3.7,12.9,8.7,17.5,14.9c4.6,6.2,7.9,13.3,9.9,21.3S321.5,212.6,320.9,221.3z"/>
</g>
</svg>
