<?xml version="1.0" encoding="utf-8"?>
<!-- Generator: Adobe Illustrator 19.2.1, SVG Export Plug-In . SVG Version: 6.00 Build 0)  -->
<svg version="1.1" id="Layer_1" xmlns="http://www.w3.org/2000/svg" xmlns:xlink="http://www.w3.org/1999/xlink" x="0px" y="0px"
	 viewBox="0 0 409.6 409.6" style="enable-background:new 0 0 409.6 409.6;" xml:space="preserve">
<style type="text/css">
	.st0{fill:rgba(255,255,255,1);}
	.st1{fill:rgba(255,255,255,0);}
	.st2{fill:rgba(255,255,255,1);}
</style>
<path class="st1" d="M0,409.6h409.6V0H0V409.6z M142.8,159.9h26.8v-36.6c0-6.7-1.3-51.5,56.5-51.5H267v46.6h-30
	c-5.9,0-11.9,6.1-11.9,10.7v30.6H267c-1.7,23.5-5.2,45-5.2,45h-37v133.1h-55.1h-0.1V204.7h-26.8V159.9z"/>
<path class="st2" d="M169.6,337.8h55.1V204.7h37c0,0,3.5-21.5,5.2-45H225v-30.6c0-4.6,6-10.7,11.9-10.7h30V71.8H226
	c-57.8,0-56.5,44.8-56.5,51.5v36.6h-26.8v44.8h26.8v133.1H169.6z"/>
<path class="st0" d="M0,0v409.6h409.6V0H0z M384.3,384.3h-359v-359h358.9v359H384.3z"/>
</svg>
