<?xml version="1.0" encoding="utf-8"?>
<!-- Generator: Adobe Illustrator 19.2.1, SVG Export Plug-In . SVG Version: 6.00 Build 0)  -->
<svg version="1.1" id="Layer_1" xmlns="http://www.w3.org/2000/svg" xmlns:xlink="http://www.w3.org/1999/xlink" x="0px" y="0px"
	 viewBox="0 0 310.4 310.4" style="enable-background:new 0 0 310.4 310.4;" xml:space="preserve">
<style type="text/css">
	.st0{fill:rgba(255,255,255,1);}
	.st1{fill:rgba(255,255,255,0);}
	.st2{fill:rgba(255,255,255,1);}
</style>
<g>
	<path class="st1" d="M155.2,125.2c-16.5,0-30,13.5-30,30s13.5,30,30,30s30-13.5,30-30C185.2,138.7,171.7,125.2,155.2,125.2z"/>
	<path class="st1" d="M205.2,76.5h-99.9c-15.9,0-28.9,13-28.9,28.9v99.9c0,15.9,13,28.9,28.9,28.9h99.9c15.9,0,28.9-13,28.9-28.9
		v-99.9C234.1,89.5,221.1,76.5,205.2,76.5z M155.2,207.2c-28.6,0-51.9-23.3-51.9-51.9c0-28.6,23.3-51.9,51.9-51.9
		c28.6,0,51.9,23.3,51.9,51.9C207.1,183.9,183.8,207.2,155.2,207.2z M208.8,114c-6.8,0-12.3-5.5-12.3-12.3s5.5-12.3,12.3-12.3
		c6.8,0,12.3,5.5,12.3,12.3S215.6,114,208.8,114z"/>
	<path class="st1" d="M0,0v310.4h310.4V0H0z M255.9,205.2c0,28-22.8,50.8-50.8,50.8h-99.9c-28,0-50.8-22.8-50.8-50.8v-99.9
		c0-28,22.8-50.8,50.8-50.8h99.9c28.1,0,50.9,22.8,50.8,50.8V205.2z"/>
</g>
<path class="st0" d="M0,0v310.4h310.4V0H0z M291.2,291.2h-272v-272h272V291.2z"/>
<path class="st2" d="M205.1,54.4h-99.9c-28,0-50.8,22.8-50.8,50.8v99.9c0,28,22.8,50.8,50.8,50.8h99.9c28,0,50.8-22.8,50.8-50.8
	v-99.9C256,77.2,233.2,54.4,205.1,54.4L205.1,54.4z M234.1,205.2c0,15.9-13,28.9-28.9,28.9h-99.9c-15.9,0-28.9-13-28.9-28.9v-99.9
	c0-15.9,13-28.9,28.9-28.9h99.9c15.9,0,28.9,13,28.9,28.9V205.2z"/>
<path class="st2" d="M208.8,114c-6.8,0-12.3-5.5-12.3-12.3s5.5-12.3,12.3-12.3s12.3,5.5,12.3,12.3S215.6,114,208.8,114L208.8,114z"
	/>
<path class="st2" d="M155.2,103.3c-28.6,0-51.9,23.3-51.9,51.9s23.3,51.9,51.9,51.9s51.9-23.3,51.9-51.9S183.8,103.3,155.2,103.3
	L155.2,103.3z M155.2,185.2c-16.5,0-30-13.5-30-30s13.5-30,30-30s30,13.4,30,30C185.2,171.7,171.7,185.2,155.2,185.2L155.2,185.2z"
	/>
</svg>
