<?xml version="1.0" encoding="utf-8"?>
<!-- Generator: Adobe Illustrator 19.2.1, SVG Export Plug-In . SVG Version: 6.00 Build 0)  -->
<svg version="1.1" id="Слой_1" xmlns="http://www.w3.org/2000/svg" xmlns:xlink="http://www.w3.org/1999/xlink" x="0px" y="0px"
	 viewBox="0 0 824 824" style="enable-background:new 0 0 824 824;" xml:space="preserve">
<style type="text/css">
	.st0{fill:#FFFFFF;}
</style>
<path class="st0" d="M771.4,411.9c0,198.1-161.2,359.3-359.3,359.3v2.5c48.8,0,96.2-9.6,140.8-28.4c43.1-18.2,81.8-44.3,115-77.5
	s59.3-71.9,77.5-115c18.9-44.6,28.4-92,28.4-140.8s-9.6-96.2-28.4-140.8c-18.2-43.1-44.3-81.8-77.5-115s-71.9-59.3-115-77.5
	c-44.6-18.9-92-28.4-140.8-28.4v2.5C610.3,52.7,771.4,213.8,771.4,411.9z"/>
</svg>
