<?xml version="1.0" encoding="utf-8"?>
<!-- Generator: Adobe Illustrator 19.2.1, SVG Export Plug-In . SVG Version: 6.00 Build 0)  -->
<svg version="1.1" id="Слой_1" xmlns="http://www.w3.org/2000/svg" xmlns:xlink="http://www.w3.org/1999/xlink" x="0px" y="0px"
	 viewBox="0 0 824 824" style="enable-background:new 0 0 824 824;" xml:space="preserve">
<style type="text/css">
	.st0{fill:#FFFFFF;}
</style>
<path class="st0" d="M5.9,412C5.9,188.1,188.1,5.9,412,5.9V3.4c-55.2,0-108.7,10.8-159.1,32.1c-48.7,20.6-92.4,50-129.9,87.6
	C85.5,160.6,56,204.3,35.4,253c-21.2,50.3-32,103.8-32,159s10.8,108.7,32.1,159.1c20.6,48.7,50,92.4,87.6,129.9
	c37.5,37.5,81.2,67,129.9,87.6c50.3,21.2,103.8,32,159,32v-2.5C188.1,818.1,5.9,635.9,5.9,412z"/>
</svg>
