<?xml version="1.0" encoding="utf-8"?>
<!-- Generator: Adobe Illustrator 19.2.1, SVG Export Plug-In . SVG Version: 6.00 Build 0)  -->
<svg version="1.1" id="Слой_1" xmlns="http://www.w3.org/2000/svg" xmlns:xlink="http://www.w3.org/1999/xlink" x="0px" y="0px"
	 viewBox="0 0 824 824" style="enable-background:new 0 0 824 824;" xml:space="preserve" width="824" height="824">
<style type="text/css">
	.st0{fill:#FFFFFF;}
</style>
<path class="st0" d="M412,52.8c198.1,0,359.3,161.2,359.3,359.3h2.5c0-48.8-9.6-96.2-28.4-140.8c-18.2-43.1-44.3-81.8-77.5-115
	s-71.9-59.3-115-77.5c-44.6-18.9-92-28.4-140.8-28.4c-48.8,0-96.2,9.6-140.8,28.4c-43.1,18.2-81.8,44.3-115,77.5
	s-59.3,71.9-77.5,115c-18.9,44.6-28.4,92-28.4,140.8h2.5C52.8,213.9,213.9,52.8,412,52.8z"/>
</svg>
