<?xml version="1.0" encoding="utf-8"?>
<!-- Generator: Adobe Illustrator 19.2.1, SVG Export Plug-In . SVG Version: 6.00 Build 0)  -->
<svg version="1.1" id="Слой_1" xmlns="http://www.w3.org/2000/svg" xmlns:xlink="http://www.w3.org/1999/xlink" x="0px" y="0px"
	 viewBox="0 0 824 824" style="enable-background:new 0 0 824 824;" xml:space="preserve" width="824" height="824">
<style type="text/css">
	.st0{fill:#FFFFFF;}
</style>
<path class="st0" d="M412,5.9c223.9,0,406.1,182.2,406.1,406.1h2.5c0-55.2-10.8-108.7-32.1-159.1c-20.6-48.7-50-92.4-87.6-129.9
	c-37.5-37.5-81.2-67-129.9-87.6C520.7,14.2,467.2,3.4,412,3.4S303.3,14.2,252.9,35.5c-48.7,20.6-92.4,50-129.9,87.6
	c-37.5,37.5-67,81.2-87.6,129.9C14.2,303.3,3.4,356.8,3.4,412h2.5C5.9,188.1,188.1,5.9,412,5.9z"/>
</svg>
