<?xml version="1.0" encoding="utf-8"?>
<!-- Generator: Adobe Illustrator 19.2.1, SVG Export Plug-In . SVG Version: 6.00 Build 0)  -->
<svg version="1.1" id="Capa_1" xmlns="http://www.w3.org/2000/svg" xmlns:xlink="http://www.w3.org/1999/xlink" x="0px" y="0px"
	 viewBox="0 0 40 28.4" style="enable-background:new 0 0 40 28.4;" xml:space="preserve">
<style type="text/css">
	.st0{fill:#FFFFFF;}
</style>
<path class="st0" d="M36.4,0H4C2,0,0.4,1.6,0.4,3.6v21.3c0,2,1.6,3.6,3.6,3.6h32.5c2,0,3.6-1.6,3.6-3.6V3.6C40,1.6,38.4,0,36.4,0z
	 M2.6,3.7l11.7,10.2l-6.8,6.4c-0.2,0.2-0.3,0.5-0.3,0.8s0.1,0.6,0.3,0.8c0.2,0.2,0.5,0.3,0.8,0.3c0.3,0,0.5-0.1,0.7-0.3l6.9-6.5
	l1.7,1.5c0.7,0.6,1.6,0.9,2.6,0.9c1,0,1.9-0.3,2.6-0.9l1.7-1.5l6.9,6.5c0.2,0.2,0.5,0.3,0.7,0.3c0.3,0,0.6-0.1,0.8-0.3
	c0.2-0.2,0.3-0.5,0.3-0.8s-0.1-0.6-0.3-0.8l-6.8-6.4L37.9,3.7v21.1c0,0.8-0.6,1.4-1.4,1.4H4c-0.8,0-1.4-0.6-1.4-1.4
	C2.6,24.8,2.6,3.7,2.6,3.7z M21.4,15.2c-0.6,0.5-1.7,0.5-2.3,0L4,2.2h32.3L21.4,15.2z"/>
</svg>
