<?xml version="1.0" encoding="utf-8"?>
<!-- Generator: Adobe Illustrator 19.2.1, SVG Export Plug-In . SVG Version: 6.00 Build 0)  -->
<svg version="1.1" id="Слой_1" xmlns="http://www.w3.org/2000/svg" xmlns:xlink="http://www.w3.org/1999/xlink" x="0px" y="0px"
	 viewBox="0 0 512 512" style="enable-background:new 0 0 512 512;" xml:space="preserve">
<style type="text/css">
	.st0{fill:#FFFFFF;}
</style>
<g>
	<path class="st0" d="M365.9,0H146.1c-20.7,0-37.5,16.8-37.5,37.5v436.9c0,20.7,16.8,37.5,37.5,37.5h219.8
		c20.7,0,37.5-16.8,37.5-37.5V37.5C403.4,16.8,386.6,0,365.9,0z M282,459.9c0-14.3-11.7-26-26-26s-26,11.7-26,26
		c0,11.3,7.2,20.9,17.3,24.5H146.1c-5.5,0-9.9-4.5-9.9-9.9v-41.7h239.7v41.7c0,2.6-1,5.1-2.9,7c-1.9,1.9-4.4,2.9-7,2.9H264.7
		C274.8,480.8,282,471.2,282,459.9z M256,475.3c-8.5,0-15.4-6.9-15.4-15.4c0-8.5,6.9-15.4,15.4-15.4c8.5,0,15.4,6.9,15.4,15.4
		C271.4,468.4,264.5,475.3,256,475.3z M375.8,91.3v319.1H136.2V91.3H375.8z M375.8,37.5V69H136.2V37.5c0-5.5,4.5-9.9,9.9-9.9h219.8
		C371.4,27.6,375.8,32.1,375.8,37.5z"/>
	<path class="st0" d="M292,45.7H220c-2.9,0-5.3,2.4-5.3,5.3c0,2.9,2.4,5.3,5.3,5.3H292c2.9,0,5.3-2.4,5.3-5.3
		C297.3,48.1,294.9,45.7,292,45.7z"/>
	<path class="st0" d="M201,45.7c-1.4,0-2.8,0.6-3.7,1.5c-1,1-1.5,2.3-1.5,3.7c0,1.4,0.6,2.8,1.5,3.7c1,1,2.3,1.5,3.7,1.5
		c1.4,0,2.8-0.6,3.7-1.5c1-1,1.6-2.3,1.6-3.7c0-1.4-0.6-2.8-1.6-3.7C203.7,46.3,202.4,45.7,201,45.7z"/>
</g>
</svg>
