<?xml version="1.0" encoding="utf-8"?>
<!-- Generator: Adobe Illustrator 19.2.1, SVG Export Plug-In . SVG Version: 6.00 Build 0)  -->
<svg version="1.1" id="Capa_1" xmlns="http://www.w3.org/2000/svg" xmlns:xlink="http://www.w3.org/1999/xlink" x="0px" y="0px"
	 viewBox="0 0 25.1 33.6" style="enable-background:new 0 0 25.1 33.6;" xml:space="preserve">
<style type="text/css">
	.st0{fill:#FFFFFF;}
</style>
<g>
	<path class="st0" d="M12.6,6.5c-3.3,0-6,2.7-6,6s2.7,6,6,6s6-2.7,6-6S15.9,6.5,12.6,6.5z M17,12.5c0,2.4-1.9,4.3-4.3,4.3
		s-4.3-1.9-4.3-4.3s1.9-4.3,4.3-4.3S17,10.1,17,12.5z"/>
	<path class="st0" d="M12.6,0C5.8,0,0.2,5.6,0.2,12.5c0,6.7,11.3,20.3,11.8,20.8c0.2,0.2,0.4,0.3,0.6,0.3c0.2,0,0.5-0.1,0.6-0.3
		c0.3-0.4,3.2-3.9,6.1-8.1c3.8-5.7,5.7-9.9,5.7-12.7C25.1,5.6,19.5,0,12.6,0z M23.5,12.5c0,5.2-8.5,16.1-10.8,19
		c-2.3-2.9-10.8-13.8-10.8-19c0-6,4.9-10.8,10.8-10.8C18.6,1.6,23.5,6.5,23.5,12.5z"/>
</g>
</svg>
