<?xml version="1.0" encoding="utf-8"?>
<!-- Generator: Adobe Illustrator 19.2.1, SVG Export Plug-In . SVG Version: 6.00 Build 0)  -->
<svg version="1.1" id="Слой_1" xmlns="http://www.w3.org/2000/svg" xmlns:xlink="http://www.w3.org/1999/xlink" x="0px" y="0px"
	 viewBox="0 0 1354 379" style="enable-background:new 0 0 1354 379;" xml:space="preserve" width="1354" height="379">
<style type="text/css">
	.st0{fill:#FFFFFF;}
</style>
<g class="magnat">
	<polygon class="st0" points="125.4,175.5 65.2,5.1 2,5.1 2,240 50.5,240 50.5,175.7 45.5,65.2 108.7,240 141.9,240 205.4,65.2 
		200.6,175.7 200.6,240 249.1,240 249.1,5.1 185.4,5.1 	"/>
	<path class="st0" d="M361.8,5.1L274.5,240h51.4l16.2-48.5h84.9l16.2,48.5h51.4L406.6,5.1H361.8z M355,152.4l29.1-87.8l29.6,87.8
		H355z"/>
	<path class="st0" d="M606.6,152.4h44v40.4c-7.9,7.9-20.7,11.5-38.8,11.5c-18.1,0-31.7-6.3-41.1-18.9c-9.4-12.6-14.2-31.2-14.2-55.8
		v-14.9c0-24.4,4.5-42.7,13.1-55S590.9,41,607.1,41c12.8,0,23.1,3.1,30.4,9.4s12.1,16,14.2,29.6h47.2c-2.9-25.4-12.3-44.8-27.8-57.9
		C655.3,8.6,633.6,2,605.8,2c-19.9,0-37.5,4.5-52.4,13.6s-26.2,22.3-34.1,39.3c-7.9,17-11.8,37.5-11.8,60.8v16
		c0.3,22.8,4.5,42.7,12.8,59.5s20.2,29.9,35.4,38.5c15.2,8.9,33,13.4,53.5,13.4c19.4,0,37-2.9,52.9-8.6c16-5.8,28.3-13.9,37-24.4
		v-93.3h-92.5L606.6,152.4L606.6,152.4z"/>
	<polygon class="st0" points="881,160 786.6,5.1 738.1,5.1 738.1,240 786.6,240 786.6,85.6 880.7,240 929.2,240 929.2,5.1 881,5.1 	
		"/>
	<path class="st0" d="M1041.9,5.1L954.3,240h51.4l16.2-48.5h84.9l16.2,48.5h51.4L1086.7,5.1H1041.9z M1035.1,152.4l29.1-87.8
		l29.6,87.8H1035.1z"/>
	<polygon class="st0" points="1162.7,5.1 1162.7,44.5 1233.7,44.5 1233.7,240 1281.9,240 1281.9,44.5 1354,44.5 1354,5.1 	"/>
</g>
<g class="professional">
	<path class="st0" d="M37.6,313.3c-3.4-1.6-7.3-2.4-11.8-2.4H2.5v59.8h12.3v-21h10.7c7.1,0,12.6-1.6,16.8-5c3.9-3.4,6-8.1,6-13.9
		c0-3.9-1-7.3-2.6-10.2C43.7,317.3,41,314.9,37.6,313.3z M33.4,337.2c-1.8,1.6-4.2,2.4-7.3,2.4H14.8v-18.9h11.3c3.1,0,5.5,1,7.1,2.9
		c1.8,1.8,2.6,4.2,2.6,7.1C35.8,333.5,35,335.9,33.4,337.2z"/>
	<path class="st0" d="M98.4,339c1.8-2.6,2.6-6,2.6-10.2c0-5.8-1.8-10.2-5.8-13.4c-3.9-3.1-9.2-4.7-16.2-4.7H56.8v59.8h12.3v-22h9.7
		l11.3,22h13.1v-0.5l-12.8-24.4C94,344,96.6,341.9,98.4,339z M86.4,336.4c-1.6,1.6-4.2,2.4-7.1,2.4h-10v-17.8h10
		c3.4,0,5.8,0.8,7.3,2.4c1.6,1.6,2.4,3.9,2.4,6.6C88.7,332.7,88,334.8,86.4,336.4z"/>
	<path class="st0" d="M147.4,313.6c-3.9-2.4-8.4-3.7-13.4-3.7c-5,0-9.4,1.3-13.4,3.7c-3.9,2.4-6.8,5.8-8.9,10.2
		c-2.1,4.5-3.1,9.7-3.1,15.5v2.9c0,5.8,1,10.7,3.1,15.2c2.1,4.5,5.2,7.9,8.9,10.2c3.9,2.4,8.4,3.7,13.4,3.7s9.4-1.3,13.4-3.7
		s6.8-5.8,8.9-10.2c2.1-4.5,3.1-9.7,3.1-15.5v-2.6c0-5.8-1-11-3.1-15.5C154.3,319.4,151.4,316,147.4,313.6z M147.4,342.4
		L147.4,342.4c-0.3,6.3-1.3,11-3.7,14.2c-2.1,3.1-5.5,5-9.4,5c-4.2,0-7.3-1.6-9.7-5c-2.4-3.4-3.4-8.1-3.4-14.2v-2.9
		c0-6.3,1-11,3.4-14.2c2.4-3.1,5.5-4.7,9.7-4.7s7.3,1.6,9.7,5c2.4,3.1,3.4,8.1,3.4,14.4V342.4z"/>
	<polygon class="st0" points="168.7,370.7 181,370.7 181,346.4 204.6,346.4 204.6,336.4 181,336.4 181,320.9 207.5,320.9 207.5,311 
		168.7,311 	"/>
	<polygon class="st0" points="214.5,370.7 254.6,370.7 254.6,360.8 226.8,360.8 226.8,344.8 250.7,344.8 250.7,335.1 226.8,335.1 
		226.8,320.9 254.6,320.9 254.6,311 214.5,311 	"/>
	<path class="st0" d="M276.1,321.7c1.6-1.3,3.9-1.8,7.1-1.8s5.5,0.8,7.3,2.4c1.8,1.6,2.6,3.7,2.6,6.3h12.3c0-3.7-1-6.8-2.9-9.7
		c-1.8-2.9-4.5-5-7.9-6.6s-7.1-2.4-11.5-2.4c-4.2,0-8.1,0.8-11.5,2.1c-3.4,1.3-6,3.4-7.9,6c-1.8,2.6-2.6,5.5-2.6,8.6
		c0,6.3,3.4,11.3,10.2,14.9c2.6,1.3,5.8,2.6,10.2,4.2c4.2,1.3,7.3,2.6,8.9,3.9c1.6,1.3,2.4,3.1,2.4,5.2c0,2.1-0.8,3.7-2.4,5
		c-1.6,1.3-3.9,1.8-6.8,1.8c-7.9,0-11.8-3.4-11.8-10h-12.3c0,3.9,1,7.3,2.9,10.2c2.1,2.9,5,5.2,8.6,6.8s7.9,2.6,12.6,2.6
		c6.6,0,11.8-1.6,15.7-4.5c3.9-2.9,5.8-7.1,5.8-12.1c0-4.7-1.6-8.6-4.7-11.8c-3.1-3.1-8.4-5.8-15.2-7.9c-3.9-1-6.8-2.4-8.6-3.7
		s-2.9-2.9-2.9-5C273.5,324.6,274.5,323,276.1,321.7z"/>
	<path class="st0" d="M334.8,319.9c3.1,0,5.5,0.8,7.3,2.4c1.8,1.6,2.6,3.7,2.6,6.3h12.3c0-3.7-1-6.8-2.9-9.7c-1.8-2.9-4.5-5-7.9-6.6
		c-3.4-1.6-7.1-2.4-11.5-2.4c-4.2,0-8.1,0.8-11.5,2.1c-3.4,1.3-6,3.4-7.9,6c-1.8,2.6-2.6,5.5-2.6,8.6c0,6.3,3.4,11.3,10.2,14.9
		c2.6,1.3,5.8,2.6,10.2,4.2c4.2,1.3,7.3,2.6,8.9,3.9c1.6,1.3,2.4,3.1,2.4,5.2c0,2.1-0.8,3.7-2.4,5c-1.6,1.3-3.9,1.8-6.8,1.8
		c-7.9,0-11.8-3.4-11.8-10h-12.3c0,3.9,1,7.3,2.9,10.2c2.1,2.9,5,5.2,8.6,6.8s7.9,2.6,12.6,2.6c6.6,0,11.8-1.6,15.7-4.5
		c3.9-2.9,5.8-7.1,5.8-12.1c0-4.7-1.6-8.6-4.7-11.8s-8.4-5.8-15.2-7.9c-3.9-1-6.8-2.4-8.6-3.7s-2.9-2.9-2.9-5c0-2.1,0.8-3.7,2.4-5
		C329.3,320.4,331.7,319.9,334.8,319.9z"/>
	<rect x="366.3" y="311" class="st0" width="12.3" height="59.8"/>
	<path class="st0" d="M426.8,313.6c-3.9-2.4-8.4-3.7-13.4-3.7c-5,0-9.4,1.3-13.4,3.7c-3.9,2.4-6.8,5.8-8.9,10.2s-3.1,9.7-3.1,15.5
		v2.9c0,5.8,1,10.7,3.1,15.2c2.1,4.5,5.2,7.9,8.9,10.2c3.9,2.4,8.4,3.7,13.4,3.7s9.4-1.3,13.4-3.7s6.8-5.8,8.9-10.2
		c2.1-4.5,3.1-9.7,3.1-15.5v-2.6c0-5.8-1-11-3.1-15.5C433.6,319.4,430.7,316,426.8,313.6z M426.8,342.4L426.8,342.4
		c-0.3,6.3-1.3,11-3.7,14.2c-2.1,3.1-5.5,5-9.4,5c-4.2,0-7.3-1.6-9.7-5c-2.4-3.4-3.4-8.1-3.4-14.2v-2.9c0-6.3,1-11,3.4-14.2
		c2.4-3.1,5.5-4.7,9.7-4.7c4.2,0,7.3,1.6,9.7,5c2.4,3.1,3.4,8.1,3.4,14.4V342.4z"/>
	<polygon class="st0" points="484.2,350.3 460.3,311 448,311 448,370.7 460.3,370.7 460.3,331.4 484.2,370.7 496.5,370.7 496.5,311 
		484.2,311 	"/>
	<path class="st0" d="M525.3,311l-22.3,59.8h13.1l4.2-12.3h21.5l4.2,12.3h13.1L536.9,311C536.9,311,525.3,311,525.3,311z
		 M523.5,348.4l7.3-22.3l7.6,22.3H523.5z"/>
	<polygon class="st0" points="577,360.8 577,311 564.6,311 564.6,370.7 603.2,370.7 603.2,360.8 	"/>
</g>
<g class="description">
	<path class="st0" d="M646.4,310.2c-1.6,1-2.9,2.4-3.7,3.9c-0.8,1.8-1.3,3.7-1.3,6c0,3.7,0.8,6.6,2.6,8.4c1.8,2.1,4.2,2.9,7.6,2.9
		c2.4,0,4.2-0.3,5.8-0.8v-2.4c-2.1,0.5-3.7,0.8-5.2,0.8c-2.6,0-4.5-0.8-5.8-2.4c-1.3-1.6-2.1-3.9-2.1-6.8c0-2.9,0.8-5,2.1-6.6
		c1.3-1.6,3.4-2.4,5.8-2.4c1.6,0,3.4,0.5,5,1.3l1-2.1c-1.8-0.8-3.7-1.3-6-1.3C649.8,308.9,648,309.4,646.4,310.2z"/>
	<path class="st0" d="M670,314.4c-2.4,0-4.2,0.8-5.5,2.4c-1.3,1.6-2.1,3.7-2.1,6.3c0,1.8,0.3,3.1,1,4.5c0.5,1.3,1.6,2.4,2.6,2.9
		c1,0.8,2.4,1,3.9,1c2.4,0,4.2-0.8,5.8-2.4c1.3-1.6,2.1-3.7,2.1-6.3c0-2.6-0.8-4.7-2.1-6.3C674.2,315.2,672.4,314.4,670,314.4z
		 M673.7,327.7c-0.8,1-2.1,1.6-3.7,1.6c-1.6,0-2.9-0.5-3.7-1.6c-0.8-1-1.3-2.6-1.3-4.7c0-2.1,0.5-3.7,1.3-4.7s2.1-1.6,3.7-1.6
		c1.6,0,2.9,0.5,3.7,1.6s1.3,2.6,1.3,4.7C675,325.1,674.5,326.7,673.7,327.7z"/>
	<path class="st0" d="M692.8,330.4c1.3-0.8,1.8-2.1,1.8-3.7c0-1-0.3-1.8-0.8-2.6c-0.5-0.8-1.6-1.3-2.9-1.6c2.1-0.5,3.1-1.8,3.1-3.7
		c0-1.3-0.5-2.4-1.6-3.1c-1-0.8-2.6-1-4.5-1c-2.1,0-3.9,0.3-5.5,1l0.8,2.1c1-0.5,1.8-0.8,2.6-0.8c0.5-0.3,1.3-0.3,2.1-0.3
		c2.6,0,3.9,0.8,3.9,2.4c0,1.8-1.6,2.6-4.7,2.6h-1.8v2.1h2.4c3.1,0,4.7,1,4.7,2.9c0,1-0.3,1.6-1,2.1c-1.3,0.5-2.6,0.8-3.9,0.8
		c-1.8,0-3.7-0.5-5.5-1.3v2.4c1.3,0.8,3.1,1,5.5,1C689.7,331.7,691.5,331.2,692.8,330.4z"/>
	<polygon class="st0" points="712.2,317.3 711.9,319.1 711.9,321.2 711.9,331.2 714.3,331.2 714.3,314.6 711.1,314.6 702.2,328.8 
		702.2,328 702.5,325.1 702.5,314.6 700.1,314.6 700.1,331.2 703.3,331.2 	"/>
	<path class="st0" d="M732.9,336.9h0.3h2.4v-7.9h-2.4v-14.4h-8.4c0,2.9-0.5,5.5-1.3,7.9c-0.8,2.4-1.8,4.7-3.1,6.6H719v7.9h2.4v-5.8
		h11.5L732.9,336.9L732.9,336.9z M730.5,329.1h-7.6c1-1.6,2.1-3.4,2.6-5.5c0.8-2.4,1-4.5,1.3-6.8h3.7V329.1z"/>
	<path class="st0" d="M747.6,330.9c0.8-0.3,1.6-1,2.4-2.1l0.5,2.4h1.8v-11.3c0-1.8-0.5-3.4-1.3-4.2c-1-0.8-2.4-1.3-4.5-1.3
		c-1,0-1.8,0-2.9,0.3c-1,0.3-1.8,0.5-2.6,1l0.8,1.8c1.8-0.8,3.4-1.3,4.7-1.3c1.3,0,2.1,0.3,2.6,1c0.5,0.5,0.8,1.6,0.8,2.9v1H747
		c-5.2,0.3-8.1,1.8-8.1,5.2c0,1.6,0.5,2.9,1.3,3.7c1,0.8,2.1,1.3,3.9,1.3C745.7,331.4,746.8,331.4,747.6,330.9z M741.8,326.7
		c0-1,0.5-2.1,1.3-2.6c0.8-0.5,2.4-0.8,4.2-1h2.6v1.6c0,1.6-0.5,2.6-1.3,3.7c-0.8,0.8-2.1,1.3-3.7,1.3c-1,0-1.8-0.3-2.4-0.8
		S741.8,327.5,741.8,326.7z"/>
	<path class="st0" d="M759.4,316c-1,0.8-1.6,2.1-1.6,3.7c0,1.3,0.3,2.4,1,3.1c0.8,0.8,1.6,1.3,2.9,1.6l-4.7,7.1h2.9l4.5-6.6h4.2v6.6
		h2.6v-16.5h-7.3C762,314.6,760.4,315.2,759.4,316z M768.5,316.7v5.5h-3.9c-2.9,0-4.2-1-4.2-2.9c0-1.8,1.3-2.6,3.7-2.6H768.5z"/>
	<path class="st0" d="M792.4,330.9c0.8,0.5,1.8,0.5,2.9,0.5c2.1,0,3.9-0.8,5-2.4c1.3-1.6,1.8-3.7,1.8-6.3c0-2.6-0.5-4.7-1.8-6.3
		c-1.3-1.6-2.9-2.4-5-2.4c-1,0-2.1,0.3-2.9,0.5c-0.8,0.5-1.6,1-2.4,2.1l-0.3-2.4h-2.1v24.1h2.6v-6.8c0-0.8,0-1.8-0.3-2.9h0.3
		C790.8,329.8,791.3,330.6,792.4,330.9z M790,322.5c0-2.1,0.5-3.7,1-4.5c0.8-1,2.1-1.3,3.7-1.3s2.6,0.5,3.4,1.6
		c0.8,1,1.3,2.6,1.3,4.7c0,2.1-0.5,3.7-1.3,4.7c-0.8,1-1.8,1.8-3.4,1.8c-1.8,0-2.9-0.5-3.7-1.6c-0.8-1-1-2.6-1-5V322.5z"/>
	<path class="st0" d="M818.1,331.4c0.8-0.3,1.6-0.5,2.6-0.8v-2.4c-1.8,0.8-3.4,1-5.2,1c-1.6,0-2.9-0.5-3.9-1.6c-1-1-1.3-2.4-1.6-4.5
		h11.5v-1.6c0-2.4-0.5-3.9-1.8-5.5c-1.3-1.3-2.9-2.1-5-2.1s-3.9,0.8-5.2,2.4c-1.3,1.6-2.1,3.7-2.1,6.3s0.8,4.7,2.1,6.3
		c1.3,1.6,3.4,2.4,5.8,2.4C816.2,331.4,817.3,331.4,818.1,331.4z M811.2,317.8c0.8-0.8,1.8-1.3,3.1-1.3c1.3,0,2.4,0.5,3.1,1.3
		c0.8,0.8,1,2.1,1,3.7h-8.6C809.9,319.9,810.5,318.6,811.2,317.8z"/>
	<path class="st0" d="M833.3,314.4c-1,0-1.8,0-2.9,0.3c-1,0.3-1.8,0.5-2.6,1l0.8,1.8c1.8-0.8,3.4-1.3,4.7-1.3s2.1,0.3,2.6,1
		c0.5,0.5,0.8,1.6,0.8,2.9v1h-2.9c-5.2,0.3-8.1,1.8-8.1,5.2c0,1.6,0.5,2.9,1.3,3.7c1,0.8,2.1,1.3,3.9,1.3c1.3,0,2.4-0.3,3.1-0.5
		c0.8-0.3,1.6-1,2.4-2.1l0.5,2.4h1.8v-11.3c0-1.8-0.5-3.4-1.3-4.2C836.7,314.9,835.4,314.4,833.3,314.4z M836.7,324.6L836.7,324.6
		c0,1.6-0.5,2.6-1.3,3.7c-0.8,0.8-2.1,1.3-3.7,1.3c-1,0-1.8-0.3-2.4-0.8s-0.8-1-0.8-2.1c0-1,0.5-2.1,1.3-2.6c0.8-0.5,2.4-0.8,4.2-1
		h2.6L836.7,324.6L836.7,324.6z"/>
	<path class="st0" d="M847.7,330.1c0.8-1,1.3-2.6,1.8-4.7s0.8-5,1-8.6h5v14.4h2.6v-16.5h-9.7c-0.3,5-0.8,8.6-1.6,11.3
		c-0.8,2.4-1.6,3.7-2.9,3.7c-0.3,0-0.5,0-0.8,0v1.8c0.3,0,0.8,0.3,1.3,0.3C845.8,331.4,846.9,330.9,847.7,330.1z"/>
	<path class="st0" d="M877.3,329.8c1-0.8,1.6-2.1,1.6-3.7c0-3.1-2.1-4.7-6.3-4.7h-5.2v-6.8h-2.6v16.5h7.6
		C874.7,331.2,876.2,330.9,877.3,329.8z M867.6,329.1v-5.5h4.7c1.6,0,2.6,0.3,3.1,0.5c0.5,0.5,1,1,1,2.1s-0.3,1.6-1,2.1
		c-0.8,0.5-1.8,0.8-3.1,0.8C872.3,329.1,867.6,329.1,867.6,329.1z"/>
	<polygon class="st0" points="887.5,323.8 896.7,323.8 896.7,331.2 899.3,331.2 899.3,314.6 896.7,314.6 896.7,321.7 887.5,321.7 
		887.5,314.6 884.9,314.6 884.9,331.2 887.5,331.2 	"/>
	<path class="st0" d="M912.7,314.4c-2.4,0-4.2,0.8-5.5,2.4c-1.3,1.6-2.1,3.7-2.1,6.3c0,1.8,0.3,3.1,1,4.5c0.5,1.3,1.6,2.4,2.6,2.9
		c1,0.8,2.4,1,3.9,1c2.4,0,4.2-0.8,5.8-2.4c1.3-1.6,2.1-3.7,2.1-6.3c0-2.6-0.8-4.7-2.1-6.3C916.9,315.2,915,314.4,912.7,314.4z
		 M916.6,327.7c-0.8,1-2.1,1.6-3.7,1.6c-1.6,0-2.9-0.5-3.7-1.6s-1.3-2.6-1.3-4.7c0-2.1,0.5-3.7,1.3-4.7s2.1-1.6,3.7-1.6
		c1.6,0,2.9,0.5,3.7,1.6c0.8,1,1.3,2.6,1.3,4.7C917.6,325.1,917.4,326.7,916.6,327.7z"/>
	<path class="st0" d="M933.1,316.5c0.5,0,1,0,1.8,0.3c0.5,0.3,1.3,0.3,1.8,0.5l0.8-2.1c-0.5-0.3-1-0.5-1.8-0.5
		c-0.8-0.3-1.6-0.3-2.4-0.3c-2.4,0-4.5,0.8-5.8,2.4c-1.3,1.6-2.1,3.7-2.1,6.6c0,2.6,0.8,4.7,2.1,6.3c1.3,1.6,3.1,2.1,5.5,2.1
		c1.6,0,3.1-0.3,4.2-0.8v-2.1c-1.6,0.5-2.9,0.8-4.2,0.8c-1.6,0-2.9-0.5-3.7-1.6s-1.3-2.6-1.3-4.7
		C927.9,318.8,929.7,316.5,933.1,316.5z"/>
	<polygon class="st0" points="940.4,316.7 945.9,316.7 945.9,331.2 948.3,331.2 948.3,316.7 953.8,316.7 953.8,314.6 940.4,314.6 	
		"/>
	<path class="st0" d="M966.1,321.5h-5.2v-6.8h-2.6v16.5h7.6c2.1,0,3.7-0.5,4.7-1.3c1-0.8,1.6-2.1,1.6-3.7
		C972.7,323,970.6,321.5,966.1,321.5z M969,328.5c-0.8,0.5-1.8,0.8-3.1,0.8h-4.7v-5.5h4.7c1.6,0,2.6,0.3,3.1,0.5c0.5,0.5,1,1,1,2.1
		C970.1,327.2,969.8,328,969,328.5z"/>
	<path class="st0" d="M981.1,328h-2.6v-0.3c-0.3,1-0.3,2.1-0.8,3.7s-0.5,2.9-0.8,3.9h1.8c0.5-1,1-2.4,1.6-3.7s0.8-2.6,1-3.4
		L981.1,328z"/>
	<path class="st0" d="M656.6,362.1c-0.5-0.5-1.6-0.8-2.9-1c1-0.3,2.1-0.8,2.6-1.3c0.5-0.5,1-1.3,1-2.4c0-2.9-2.1-4.2-6.3-4.2h-7.3
		v16.5h7.3c2.1,0,3.9-0.5,5-1.3s1.6-2.1,1.6-3.7C657.7,363.6,657.4,362.6,656.6,362.1z M646.1,355.3h4.7c1.3,0,2.1,0.3,2.9,0.5
		c0.8,0.3,1,0.8,1,1.8c0,0.8-0.3,1.6-1,1.8c-0.5,0.3-1.8,0.5-3.4,0.5h-4.2V355.3z M650.9,367.6h-4.7v-5.5h4.5c1.6,0,2.6,0.3,3.4,0.5
		c0.8,0.5,1,1,1,1.8C655.3,366.8,653.7,367.6,650.9,367.6z"/>
	<path class="st0" d="M669.7,352.9c-2.4,0-4.2,0.8-5.5,2.4s-2.1,3.7-2.1,6.3c0,1.8,0.3,3.1,1,4.5c0.5,1.3,1.6,2.4,2.6,2.9
		c1,0.8,2.4,1,3.9,1c2.4,0,4.2-0.8,5.8-2.4c1.3-1.6,2.1-3.7,2.1-6.3s-0.8-4.7-2.1-6.3C673.9,353.7,672.1,352.9,669.7,352.9z
		 M673.4,366.3c-0.8,1-2.1,1.6-3.7,1.6s-2.9-0.5-3.7-1.6c-0.8-1-1.3-2.6-1.3-4.7s0.5-3.7,1.3-4.7c0.8-1,2.1-1.6,3.7-1.6
		s2.9,0.5,3.7,1.6c0.8,1,1.3,2.6,1.3,4.7S674.2,365.2,673.4,366.3z"/>
	<polygon class="st0" points="683.1,369.7 685.7,369.7 685.7,355.3 694.6,355.3 694.6,369.7 697,369.7 697,353.2 683.1,353.2 	"/>
	<path class="st0" d="M705.1,364.4c-0.8,2.4-1.6,3.7-2.9,3.7c-0.3,0-0.5,0-0.8,0v1.8c0.3,0,0.8,0.3,1.3,0.3c1.3,0,2.1-0.5,2.9-1.6
		c0.8-1,1.3-2.6,1.8-4.7c0.5-2.1,0.8-5,1-8.6h5v14.4h2.6v-16.5h-9.7C706.2,358.1,705.6,361.8,705.1,364.4z"/>
	<path class="st0" d="M730,352.9c-2.4,0-4.2,0.8-5.5,2.4c-1.3,1.6-2.1,3.7-2.1,6.3c0,1.8,0.3,3.1,1,4.5c0.8,1.3,1.6,2.4,2.6,2.9
		c1,0.8,2.4,1,3.9,1c2.4,0,4.2-0.8,5.8-2.4c1.3-1.6,2.1-3.7,2.1-6.3s-0.8-4.7-2.1-6.3C734.2,353.7,732.1,352.9,730,352.9z
		 M733.7,366.3c-0.8,1-2.1,1.6-3.7,1.6c-1.6,0-2.9-0.5-3.7-1.6c-0.8-1-1.3-2.6-1.3-4.7s0.5-3.7,1.3-4.7c0.8-1,2.1-1.6,3.7-1.6
		c1.6,0,2.9,0.5,3.7,1.6c0.8,1,1.3,2.6,1.3,4.7S734.5,365.2,733.7,366.3z"/>
	<polygon class="st0" points="765.7,353.2 763,353.2 763,367.6 755.7,367.6 755.7,353.2 753.3,353.2 753.3,367.6 746,367.6 
		746,353.2 743.4,353.2 743.4,369.7 765.4,369.7 765.4,375.4 768,375.4 768,367.6 765.7,367.6 	"/>
	<path class="st0" d="M779,352.9c-1,0-1.8,0-2.9,0.3c-1,0.3-1.8,0.5-2.6,1l0.8,1.8c1.8-0.8,3.4-1.3,4.7-1.3s2.1,0.3,2.6,1
		c0.5,0.5,0.8,1.6,0.8,2.9v1h-2.9c-5.2,0.3-8.1,1.8-8.1,5.2c0,1.6,0.5,2.9,1.3,3.7c1,0.8,2.1,1.3,3.9,1.3c1.3,0,2.4-0.3,3.1-0.5
		c0.8-0.3,1.6-1,2.4-2.1l0.5,2.4h1.8v-11.3c0-1.8-0.5-3.4-1.3-4.2C782.4,353.4,780.8,352.9,779,352.9z M782.4,363.1L782.4,363.1
		c0,1.6-0.5,2.6-1.3,3.7c-0.8,0.8-2.1,1.3-3.7,1.3c-1,0-1.8-0.3-2.4-0.8c-0.5-0.5-0.8-1-0.8-2.1c0-1,0.5-2.1,1.3-2.6
		c0.8-0.5,2.4-0.8,4.2-1h2.6L782.4,363.1L782.4,363.1z"/>
	<path class="st0" d="M797.9,352.9c-2.1,0-3.9,0.8-5.2,2.4c-1.3,1.6-2.1,3.7-2.1,6.3c0,2.6,0.8,4.7,2.1,6.3c1.3,1.6,3.4,2.4,5.8,2.4
		c1,0,2.1,0,2.9-0.3c0.8-0.3,1.6-0.5,2.6-0.8v-2.4c-1.8,0.8-3.4,1-5.2,1c-1.6,0-2.9-0.5-3.9-1.6c-1-1-1.3-2.4-1.6-4.5h11.5v-1.6
		c0-2.4-0.5-3.9-1.8-5.5C801.6,353.4,800,352.9,797.9,352.9z M793.2,360c0.3-1.6,0.5-2.6,1.3-3.7c0.8-0.8,1.8-1.3,3.1-1.3
		s2.4,0.5,3.1,1.3s1,2.1,1,3.7H793.2z"/>
	<path class="st0" d="M820.2,364.2l-0.5,1.8l-0.5,1.3c-0.3-1.3-0.8-2.6-1.3-3.7l-4.5-10.5h-3.1v16.5h2.4V356c0.3,0.8,0.5,1.8,1,3.1
		l4.2,10.5h2.1l4.2-10.5l0.8-2.4l0.3-0.8v13.6h2.1v-16.5h-3.1L820.2,364.2z"/>
	<path class="st0" d="M854,364.2l-0.5,1.8l-0.5,1.3c-0.3-1.3-0.8-2.6-1.3-3.7l-4.5-10.5H844v16.5h2.4V356c0.3,0.8,0.5,1.8,1,3.1
		l4.2,10.5h2.1l4.2-10.5l0.8-2.4l0.3-0.8v13.6h2.1v-16.5h-3.1L854,364.2z"/>
	<path class="st0" d="M874.9,352.9c-2.1,0-3.9,0.8-5.2,2.4s-2.1,3.7-2.1,6.3c0,2.6,0.8,4.7,2.1,6.3c1.3,1.6,3.4,2.4,5.8,2.4
		c1,0,2.1,0,2.9-0.3c0.8-0.3,1.6-0.5,2.6-0.8v-2.4c-1.8,0.8-3.4,1-5.2,1c-1.6,0-2.9-0.5-3.9-1.6c-1-1-1.3-2.4-1.6-4.5h11.5v-1.6
		c0-2.4-0.5-3.9-1.8-5.5C878.6,353.4,877,352.9,874.9,352.9z M870.5,360c0.3-1.6,0.5-2.6,1.3-3.7c0.8-0.8,1.8-1.3,3.1-1.3
		s2.4,0.5,3.1,1.3c0.8,0.8,1,2.1,1,3.7H870.5z"/>
	<path class="st0" d="M898.3,360.2L898.3,360.2c-0.8,0.8-1.8,1-2.6,1.3c-0.8,0.3-1.8,0.5-2.6,0.5c-2.1,0-3.4-1-3.4-2.9v-6H887v6.3
		c0,1.6,0.5,2.6,1.3,3.4c1,0.8,2.4,1.3,3.9,1.3c1,0,2.1-0.3,3.1-0.5c0.8-0.3,1.8-0.8,2.9-1.6v7.6h2.6v-16.5h-2.6L898.3,360.2
		L898.3,360.2z"/>
	<polygon class="st0" points="905.9,355.3 911.1,355.3 911.1,369.7 913.7,369.7 913.7,355.3 919.2,355.3 919.2,353.2 905.9,353.2 	
		"/>
	<path class="st0" d="M930,364.7c-0.5,1.3-0.8,2.1-0.8,2.6c-0.3-1-0.8-2.6-1.6-4.7l-3.7-9.4h-2.6l6.8,16.8l-1,2.4
		c-0.8,1.8-2.1,2.9-3.7,2.9c-0.8,0-1.3,0-1.8-0.3v2.1c0.8,0.3,1.6,0.3,2.4,0.3c1.3,0,2.6-0.3,3.4-1c1-0.8,1.8-2.1,2.4-3.9l7.1-18.9
		h-2.6C931.8,359.5,930.5,363.4,930,364.7z"/>
</g>
</svg>
