<?xml version="1.0" encoding="utf-8"?>
<!-- Generator: Adobe Illustrator 19.2.1, SVG Export Plug-In . SVG Version: 6.00 Build 0)  -->
<svg version="1.1" id="Слой_1" xmlns="http://www.w3.org/2000/svg" xmlns:xlink="http://www.w3.org/1999/xlink" x="0px" y="0px"
	 viewBox="0 0 500 500" style="enable-background:new 0 0 500 500;" xml:space="preserve">
<style type="text/css">
	.st0{fill:#C1001E;}
</style>
<g>
	<path class="st0" d="M250,69.1l-5.5,22.8c-44.2,12-77.9,31-101.2,57s-34.8,53.8-34.8,83.2c0,9.7,11.6,22.2,34.8,37.6
		c23.2,15.4,34.8,39.2,34.8,71.4c0,25.3-8.5,46.4-25.4,63.5c-17,17-38.5,25.5-64.6,25.5c-27,0-48.6-9-64.6-26.9
		c-16-17.9-24-42.6-24-73.9c0-57.5,22.8-112,68.3-163.5S174,82,250,69.1z M499.4,69.1l-5.5,22.8c-44,12-77.6,31-101,57
		c-23.3,26-35,53.8-35,83.2c0,9.7,11.6,22.2,34.8,37.6c23.2,15.4,34.8,39.2,34.8,71.4c0,25.3-8.6,46.4-25.8,63.5
		c-17.2,17-38.6,25.5-64.2,25.5c-27.5,0-49.1-9-64.9-26.9c-15.8-17.9-23.7-42.6-23.7-73.9c0-57.5,22.7-112,68.2-163.5
		C362.4,114.2,423.2,82,499.4,69.1z"/>
</g>
</svg>
